<?xml version="1.0" standalone="no"?>
<!DOCTYPE svg PUBLIC "-//W3C//DTD SVG 20010904//EN"
 "http://www.w3.org/TR/2001/REC-SVG-20010904/DTD/svg10.dtd">
<svg version="1.0" xmlns="http://www.w3.org/2000/svg"
 width="301.000000pt" height="301.000000pt" viewBox="0 0 301.000000 301.000000"
 preserveAspectRatio="xMidYMid meet">

<g transform="translate(0.000000,301.000000) scale(0.100000,-0.100000)"
fill="#000000" stroke="none">
<path d="M1050 2485 c0 -33 -2 -35 -35 -35 l-35 0 0 -455 0 -455 105 0 105 0
0 210 0 210 70 0 70 0 0 -35 0 -35 175 0 175 0 0 -70 0 -70 140 0 140 0 0 70
0 70 70 0 70 0 0 -70 0 -70 105 0 105 0 0 105 0 105 -490 0 -490 0 0 140 0
140 70 0 70 0 0 35 0 35 420 0 420 0 0 105 0 105 -630 0 -630 0 0 -35z"/>
<path d="M490 805 l0 -35 -70 0 -70 0 0 -35 c0 -33 -2 -35 -35 -35 l-35 0 0
-350 0 -350 1190 0 1190 0 0 350 0 350 -70 0 -70 0 0 35 c0 33 -2 35 -35 35
-33 0 -35 2 -35 35 l0 35 -245 0 -245 0 0 -140 0 -140 -35 0 c-33 0 -35 -2
-35 -35 l0 -35 -140 0 -140 0 0 35 0 35 -175 0 -175 0 0 35 c0 33 -2 35 -35
35 -33 0 -35 2 -35 35 0 33 -2 35 -35 35 -33 0 -35 2 -35 35 0 33 -2 35 -35
35 -33 0 -35 2 -35 35 l0 35 -280 0 -280 0 0 -35z"/>
</g>
</svg>
